<svg width="254" height="251" viewBox="0 0 254 251" fill="none" xmlns="http://www.w3.org/2000/svg">
<path d="M14.6141 158.581C9.41407 142.381 7.91407 125.281 10.9141 107.681C12.2141 100.381 14.2141 93.3809 16.4141 86.2809C16.4141 86.2809 30.2141 40.9809 76.9141 20.2809C76.9141 20.2809 93.0141 11.7809 117.214 11.1809C117.214 11.1809 113.914 7.98085 111.814 6.58085C100.414 -1.01915 83.4141 -3.51915 73.1141 7.18085C70.0141 10.3809 67.4141 13.8809 64.5141 17.0809C61.2141 20.6809 57.2141 23.6809 52.6141 25.3809C48.6141 26.8809 44.6141 26.5809 40.5141 27.2809C36.3141 27.9809 32.0141 29.4809 28.6141 32.1809C24.9141 35.1809 23.4141 39.1809 23.0141 43.7809C22.6141 47.3809 22.7141 51.0809 22.5141 54.6809C22.0141 65.2809 18.6141 68.2809 11.0141 74.1809C7.81407 76.5809 5.11407 79.7809 3.11407 83.1809C-2.88593 93.7809 6.71407 104.781 7.21407 115.481C7.31407 117.681 7.11407 119.881 6.31407 121.981C5.51407 124.281 3.91407 125.781 2.61407 127.681C0.814069 130.181 -0.385931 133.181 0.114069 136.281C0.614069 139.381 2.21407 142.281 3.71407 144.981C6.61407 149.781 10.2141 154.081 14.0141 158.181C14.2141 158.181 14.4141 158.381 14.6141 158.581Z" fill="#6B46FF"/>
<path d="M205.414 196.981C228.414 186.981 238.214 169.681 238.214 169.681C259.714 140.381 252.414 109.481 252.414 109.481C238.714 139.281 226.214 147.481 226.214 147.481C259.914 96.1809 226.414 65.1809 226.414 65.1809C240.114 94.3809 221.914 129.981 221.914 129.981C206.614 162.181 184.914 173.681 184.914 173.681C209.114 178.181 226.914 161.881 226.914 161.881C192.214 199.381 154.614 197.581 154.614 197.581C170.414 215.281 194.114 213.781 194.114 213.781C163.114 221.081 134.014 210.781 110.114 190.881C105.614 187.181 101.314 183.181 97.3141 178.881C97.3141 178.881 93.7141 175.081 93.0141 174.081L92.9141 173.981C92.4141 192.481 111.714 209.681 111.714 209.681C87.5141 199.681 76.4141 177.981 76.4141 177.981C76.4141 177.981 60.1141 150.181 71.9141 118.481C83.7141 86.7809 119.414 79.9809 119.414 79.9809C148.914 94.2809 173.914 98.7809 173.914 98.7809C226.614 107.581 223.614 81.7809 223.614 81.7809C224.114 59.5809 190.614 35.9809 190.614 35.9809C130.914 -8.31913 76.9141 20.2809 76.9141 20.2809C30.2141 40.9809 16.4141 86.2809 16.4141 86.2809C14.2141 93.3809 12.2141 100.381 10.9141 107.681C5.81413 137.381 13.5141 165.481 30.2141 190.481C56.2141 229.281 98.4141 242.681 98.4141 242.681C160.914 263.881 203.614 232.681 203.614 232.681C242.914 205.681 250.814 174.481 250.814 174.481C219.114 199.281 205.414 196.981 205.414 196.981ZM156.614 51.0809C159.614 51.0809 162.014 53.4809 162.014 56.4809C162.014 59.4809 159.614 61.8809 156.614 61.8809C153.614 61.8809 151.214 59.4809 151.214 56.4809C151.214 53.4809 153.614 51.0809 156.614 51.0809Z" fill="url(#paint0_linear_5_2)"/>
<path d="M223.514 81.6808C224.014 59.4808 190.514 35.8808 190.514 35.8808C130.814 -8.31915 76.8141 20.2808 76.8141 20.2808C30.1141 40.9809 16.3141 86.2808 16.3141 86.2808C13.6141 93.9808 11.2141 105.781 11.2141 105.781C8.31412 120.581 9.61412 134.281 9.61412 134.281C10.8141 147.381 13.7141 156.181 13.7141 156.181C16.7141 165.581 18.1141 168.481 18.1141 168.481C18.0141 168.181 17.5141 165.981 17.5141 165.981C17.5141 165.981 13.3141 145.781 17.2141 126.381C17.2141 126.381 20.6141 106.181 34.4141 90.5808C34.4141 90.5808 56.8141 58.6809 98.5141 71.1809C98.5141 71.1809 107.514 74.3808 110.614 75.9808C113.714 77.4808 119.114 79.7808 119.114 79.7808C148.614 94.0808 173.614 98.5808 173.614 98.5808C226.514 107.481 223.514 81.6808 223.514 81.6808ZM156.614 61.9808C153.614 61.9808 151.214 59.5809 151.214 56.5809C151.214 53.5809 153.614 51.1809 156.614 51.1809C159.614 51.1809 162.014 53.5809 162.014 56.5809C162.014 59.5809 159.614 61.9808 156.614 61.9808Z" fill="#D9D9D9"/>
<path d="M122.109 41.8222L88.0093 31.2222C87.8093 31.2222 86.8093 30.7222 85.0093 31.2222C85.0093 31.2222 64.9093 36.3222 68.4093 47.3222C68.4093 47.3222 70.5093 54.2222 76.2093 60.9222L113.709 59.1222L122.109 41.8222Z" fill="url(#paint1_linear_5_2)"/>
<defs>
<linearGradient id="paint0_linear_5_2" x1="38.5101" y1="230.982" x2="162.946" y2="98.6039" gradientUnits="userSpaceOnUse">
<stop stop-color="#501DE0"/>
<stop offset="0.401" stop-color="#543AF1"/>
<stop offset="0.77" stop-color="#6B46FF"/>
<stop offset="1" stop-color="#7378FF"/>
</linearGradient>
<linearGradient id="paint1_linear_5_2" x1="67.9213" y1="45.9582" x2="122.08" y2="45.9582" gradientUnits="userSpaceOnUse">
<stop stop-color="#501DE0"/>
<stop offset="0.238" stop-color="#543AF1"/>
<stop offset="0.658" stop-color="#501DE0"/>
<stop offset="0.999" stop-color="#7378FF"/>
</linearGradient>
</defs>
</svg>
