<svg width="201" height="199" viewBox="0 0 201 199" fill="none" xmlns="http://www.w3.org/2000/svg">
<path d="M11.5751 125.604C7.45644 112.773 6.26836 99.229 8.64452 85.2889C9.67419 79.5069 11.2583 73.9626 13.0008 68.339C13.0008 68.339 23.9311 32.459 60.92 16.0635C60.92 16.0635 73.672 9.33106 92.8397 8.85583C92.8397 8.85583 90.2259 6.32126 88.5626 5.21238C79.5332 -0.807217 66.0683 -2.78735 57.9102 5.68761C55.4548 8.22218 53.3955 10.9944 51.0985 13.5289C48.4848 16.3803 45.3166 18.7565 41.6731 20.103C38.5049 21.2911 35.3367 21.0534 32.0893 21.6079C28.7627 22.1623 25.3568 23.3504 22.6638 25.4889C19.7333 27.8651 18.5452 31.0333 18.2284 34.6767C17.9115 37.5281 17.9907 40.4587 17.8323 43.3101C17.4363 51.7059 14.7433 54.082 8.72372 58.7551C6.18915 60.6561 4.05061 63.1906 2.46651 65.8836C-2.28581 74.2794 5.3179 82.9919 5.71392 91.4669C5.79313 93.2094 5.63472 94.9519 5.00107 96.6153C4.36743 98.437 3.10015 99.6251 2.07048 101.13C0.644786 103.11 -0.305678 105.486 0.0903486 107.942C0.486375 110.397 1.75366 112.694 2.94174 114.832C5.23869 118.634 8.09008 122.04 11.0999 125.288C11.2583 125.288 11.4167 125.446 11.5751 125.604Z" fill="#6B46FF"/>
<path d="M162.699 156.019C180.916 148.099 188.678 134.396 188.678 134.396C205.707 111.189 199.925 86.7146 199.925 86.7146C189.074 110.318 179.174 116.813 179.174 116.813C205.866 76.1803 179.332 51.6267 179.332 51.6267C190.183 74.7546 175.768 102.952 175.768 102.952C163.649 128.456 146.462 137.564 146.462 137.564C165.629 141.129 179.728 128.218 179.728 128.218C152.244 157.92 122.463 156.494 122.463 156.494C134.977 170.514 153.749 169.326 153.749 169.326C129.195 175.108 106.146 166.95 87.2163 151.188C83.652 148.257 80.2462 145.089 77.078 141.683C77.078 141.683 74.2266 138.673 73.6722 137.881L73.5929 137.802C73.1969 152.455 88.4835 166.078 88.4835 166.078C69.3159 158.158 60.5241 140.97 60.5241 140.97C60.5241 140.97 47.6136 118.951 56.9598 93.8431C66.3061 68.735 94.5823 63.3491 94.5823 63.3491C117.948 74.6754 137.749 78.2397 137.749 78.2397C179.49 85.2097 177.114 64.7748 177.114 64.7748C177.51 47.1912 150.976 28.4987 150.976 28.4987C103.691 -6.58919 60.9201 16.0635 60.9201 16.0635C23.9312 32.459 13.0009 68.339 13.0009 68.339C11.2584 73.9626 9.67429 79.5069 8.64462 85.2889C4.60516 108.813 10.704 131.07 23.9312 150.871C44.5246 181.603 77.9492 192.216 77.9492 192.216C127.453 209.008 161.273 184.296 161.273 184.296C192.401 162.91 198.658 138.198 198.658 138.198C173.55 157.841 162.699 156.019 162.699 156.019ZM124.047 40.4587C126.423 40.4587 128.324 42.3597 128.324 44.7358C128.324 47.112 126.423 49.0129 124.047 49.0129C121.671 49.0129 119.77 47.112 119.77 44.7358C119.77 42.3597 121.671 40.4587 124.047 40.4587Z" fill="url(#paint0_linear_7_4)"/>
<path d="M177.035 64.6955C177.431 47.112 150.897 28.4195 150.897 28.4195C103.612 -6.58922 60.8408 16.0635 60.8408 16.0635C23.8519 32.459 12.9216 68.339 12.9216 68.339C10.7831 74.4378 8.88215 83.784 8.88215 83.784C6.5852 95.5064 7.61487 106.357 7.61487 106.357C8.56533 116.733 10.8623 123.703 10.8623 123.703C13.2384 131.149 14.3473 133.446 14.3473 133.446C14.2681 133.208 13.8721 131.466 13.8721 131.466C13.8721 131.466 10.5455 115.466 13.6345 100.1C13.6345 100.1 16.3274 84.1008 27.2578 71.7448C27.2578 71.7448 44.9998 46.4783 78.0283 56.379C78.0283 56.379 85.1568 58.9135 87.6122 60.1808C90.0675 61.3689 94.3446 63.1906 94.3446 63.1906C117.71 74.517 137.511 78.0812 137.511 78.0812C179.411 85.1305 177.035 64.6955 177.035 64.6955ZM124.047 49.0921C121.67 49.0921 119.77 47.1912 119.77 44.815C119.77 42.4388 121.67 40.5379 124.047 40.5379C126.423 40.5379 128.324 42.4388 128.324 44.815C128.324 47.1912 126.423 49.0921 124.047 49.0921Z" fill="#D9D9D9"/>
<path d="M96.717 33.1254L69.708 24.7296C69.5496 24.7296 68.7575 24.3336 67.3318 24.7296C67.3318 24.7296 51.4116 28.7691 54.1838 37.4817C54.1838 37.4817 55.8471 42.9468 60.3618 48.2536L90.0638 46.8279L96.717 33.1254Z" fill="url(#paint1_linear_7_4)"/>
<defs>
<linearGradient id="paint0_linear_7_4" x1="30.5021" y1="182.95" x2="129.062" y2="78.0994" gradientUnits="userSpaceOnUse">
<stop stop-color="#501DE0"/>
<stop offset="0.401" stop-color="#543AF1"/>
<stop offset="0.77" stop-color="#6B46FF"/>
<stop offset="1" stop-color="#7378FF"/>
</linearGradient>
<linearGradient id="paint1_linear_7_4" x1="53.7972" y1="36.4013" x2="96.694" y2="36.4013" gradientUnits="userSpaceOnUse">
<stop stop-color="#501DE0"/>
<stop offset="0.238" stop-color="#543AF1"/>
<stop offset="0.658" stop-color="#501DE0"/>
<stop offset="0.999" stop-color="#7378FF"/>
</linearGradient>
</defs>
</svg>
