<svg width="203" height="201" viewBox="0 0 203 201" fill="none" xmlns="http://www.w3.org/2000/svg">
<path d="M12.5751 126.604C8.45644 113.773 7.26836 100.229 9.64452 86.2889C10.6742 80.5069 12.2583 74.9626 14.0008 69.339C14.0008 69.339 24.9311 33.459 61.92 17.0635C61.92 17.0635 74.672 10.3311 93.8397 9.85583C93.8397 9.85583 91.2259 7.32126 89.5626 6.21238C80.5332 0.192783 67.0683 -1.78735 58.9102 6.68761C56.4548 9.22218 54.3955 11.9944 52.0985 14.5289C49.4848 17.3803 46.3166 19.7565 42.6731 21.103C39.5049 22.2911 36.3367 22.0534 33.0893 22.6079C29.7627 23.1623 26.3568 24.3504 23.6638 26.4889C20.7333 28.8651 19.5452 32.0333 19.2284 35.6767C18.9115 38.5281 18.9907 41.4587 18.8323 44.3101C18.4363 52.7059 15.7433 55.082 9.72372 59.7551C7.18915 61.6561 5.05061 64.1906 3.46651 66.8836C-1.28581 75.2794 6.3179 83.9919 6.71392 92.4669C6.79313 94.2094 6.63472 95.9519 6.00107 97.6153C5.36743 99.437 4.10015 100.625 3.07048 102.13C1.64479 104.11 0.694322 106.486 1.09035 108.942C1.48637 111.397 2.75366 113.694 3.94174 115.832C6.23869 119.634 9.09008 123.04 12.0999 126.288C12.2583 126.288 12.4167 126.446 12.5751 126.604Z" fill="#6B46FF" stroke="black" stroke-width="2" stroke-linejoin="round"/>
<path d="M163.699 157.019C181.916 149.099 189.678 135.396 189.678 135.396C206.707 112.189 200.925 87.7146 200.925 87.7146C190.074 111.318 180.174 117.813 180.174 117.813C206.866 77.1803 180.332 52.6267 180.332 52.6267C191.183 75.7546 176.768 103.952 176.768 103.952C164.649 129.456 147.462 138.564 147.462 138.564C166.629 142.129 180.728 129.218 180.728 129.218C153.244 158.92 123.463 157.494 123.463 157.494C135.977 171.514 154.749 170.326 154.749 170.326C130.195 176.108 107.146 167.95 88.2163 152.188C84.652 149.257 81.2462 146.089 78.078 142.683C78.078 142.683 75.2266 139.673 74.6722 138.881L74.5929 138.802C74.1969 153.455 89.4835 167.078 89.4835 167.078C70.3159 159.158 61.5241 141.97 61.5241 141.97C61.5241 141.97 48.6136 119.951 57.9598 94.8431C67.3061 69.735 95.5823 64.3491 95.5823 64.3491C118.948 75.6754 138.749 79.2397 138.749 79.2397C180.49 86.2097 178.114 65.7748 178.114 65.7748C178.51 48.1912 151.976 29.4987 151.976 29.4987C104.691 -5.58919 61.9201 17.0635 61.9201 17.0635C24.9312 33.459 14.0009 69.339 14.0009 69.339C12.2584 74.9626 10.6743 80.5069 9.64462 86.2889C5.60516 109.813 11.704 132.07 24.9312 151.871C45.5246 182.603 78.9492 193.216 78.9492 193.216C128.453 210.008 162.273 185.296 162.273 185.296C193.401 163.91 199.658 139.198 199.658 139.198C174.55 158.841 163.699 157.019 163.699 157.019ZM125.047 41.4587C127.423 41.4587 129.324 43.3597 129.324 45.7358C129.324 48.112 127.423 50.0129 125.047 50.0129C122.671 50.0129 120.77 48.112 120.77 45.7358C120.77 43.3597 122.671 41.4587 125.047 41.4587Z" fill="url(#paint0_linear_7_4)" stroke="black" stroke-width="2" stroke-linejoin="round"/>
<path d="M178.035 65.6955C178.431 48.112 151.897 29.4195 151.897 29.4195C104.612 -5.58922 61.8408 17.0635 61.8408 17.0635C24.8519 33.459 13.9216 69.339 13.9216 69.339C11.7831 75.4378 9.88215 84.784 9.88215 84.784C7.5852 96.5064 8.61487 107.357 8.61487 107.357C9.56533 117.733 11.8623 124.703 11.8623 124.703C14.2384 132.149 15.3473 134.446 15.3473 134.446C15.2681 134.208 14.8721 132.466 14.8721 132.466C14.8721 132.466 11.5455 116.466 14.6345 101.1C14.6345 101.1 17.3274 85.1008 28.2578 72.7448C28.2578 72.7448 45.9998 47.4783 79.0283 57.379C79.0283 57.379 86.1568 59.9135 88.6122 61.1808C91.0675 62.3689 95.3446 64.1906 95.3446 64.1906C118.71 75.517 138.511 79.0812 138.511 79.0812C180.411 86.1305 178.035 65.6955 178.035 65.6955ZM125.047 50.0921C122.67 50.0921 120.77 48.1912 120.77 45.815C120.77 43.4388 122.67 41.5379 125.047 41.5379C127.423 41.5379 129.324 43.4388 129.324 45.815C129.324 48.1912 127.423 50.0921 125.047 50.0921Z" fill="#D9D9D9" stroke="black" stroke-width="2" stroke-linejoin="round"/>
<path d="M97.717 34.1254L70.708 25.7296C70.5496 25.7296 69.7575 25.3336 68.3318 25.7296C68.3318 25.7296 52.4116 29.7691 55.1838 38.4817C55.1838 38.4817 56.8471 43.9468 61.3618 49.2536L91.0638 47.8279L97.717 34.1254Z" fill="url(#paint1_linear_7_4)" stroke="black" stroke-width="2" stroke-linejoin="round"/>
<defs>
<linearGradient id="paint0_linear_7_4" x1="31.5021" y1="183.95" x2="130.062" y2="79.0994" gradientUnits="userSpaceOnUse">
<stop stop-color="#501DE0"/>
<stop offset="0.401" stop-color="#543AF1"/>
<stop offset="0.77" stop-color="#6B46FF"/>
<stop offset="1" stop-color="#7378FF"/>
</linearGradient>
<linearGradient id="paint1_linear_7_4" x1="54.7972" y1="37.4013" x2="97.694" y2="37.4013" gradientUnits="userSpaceOnUse">
<stop stop-color="#501DE0"/>
<stop offset="0.238" stop-color="#543AF1"/>
<stop offset="0.658" stop-color="#501DE0"/>
<stop offset="0.999" stop-color="#7378FF"/>
</linearGradient>
</defs>
</svg>
